<svg
  width="18"
  height="20"
  viewBox="0 0 18 20"
  fill="none"
  xmlns="http://www.w3.org/2000/svg"
>
  <path d="M0.999939 4.6H16.9999H0.999939Z" fill="white" />
  <path
    d="M15.2222 4.6V17.2C15.2222 18.1 14.3333 19 13.4444 19H4.55549C3.66661 19 2.77772 18.1 2.77772 17.2V4.6"
    fill="white"
  />
  <path
    d="M5.44438 4.6V2.8C5.44438 1.9 6.33327 1 7.22216 1H10.7777C11.6666 1 12.5555 1.9 12.5555 2.8V4.6"
    fill="white"
  />
  <path
    d="M0.999939 4.6H16.9999M15.2222 4.6V17.2C15.2222 18.1 14.3333 19 13.4444 19H4.55549C3.66661 19 2.77772 18.1 2.77772 17.2V4.6M5.44438 4.6V2.8C5.44438 1.9 6.33327 1 7.22216 1H10.7777C11.6666 1 12.5555 1.9 12.5555 2.8V4.6"
    stroke="#58575A"
    stroke-width="2"
    stroke-linecap="round"
    stroke-linejoin="round"
  />
</svg>
