<svg
  width="20"
  height="20"
  viewBox="0 0 20 20"
  fill="none"
  xmlns="http://www.w3.org/2000/svg"
>
  <path
    d="M9.52791 1.94407H2.89504C2.39243 1.94407 1.9104 2.14373 1.555 2.49913C1.1996 2.85453 0.999939 3.33656 0.999939 3.83917V17.1049C0.999939 17.6075 1.1996 18.0895 1.555 18.4449C1.9104 18.8003 2.39243 19 2.89504 19H16.1608C16.6634 19 17.1454 18.8003 17.5008 18.4449C17.8562 18.0895 18.0559 17.6075 18.0559 17.1049V10.472"
    fill="white"
  />
  <path
    d="M15.5685 1.58873C15.9455 1.21177 16.4568 1 16.9899 1C17.523 1 18.0342 1.21177 18.4112 1.58873C18.7882 1.96569 18.9999 2.47696 18.9999 3.01006C18.9999 3.54316 18.7882 4.05443 18.4112 4.43139L9.87092 12.9726C9.64592 13.1974 9.36796 13.362 9.06266 13.4511L6.34034 14.2471C6.25881 14.2709 6.17238 14.2723 6.0901 14.2512C6.00783 14.2301 5.93273 14.1873 5.87267 14.1273C5.81262 14.0672 5.76981 13.9921 5.74873 13.9098C5.72765 13.8276 5.72908 13.7411 5.75286 13.6596L6.5488 10.9373C6.63837 10.6322 6.80325 10.3546 7.02826 10.13L15.5685 1.58873Z"
    fill="white"
  />
  <path
    d="M9.52791 1.94407H2.89504C2.39243 1.94407 1.9104 2.14373 1.555 2.49913C1.1996 2.85453 0.999939 3.33656 0.999939 3.83917V17.1049C0.999939 17.6075 1.1996 18.0895 1.555 18.4449C1.9104 18.8003 2.39243 19 2.89504 19H16.1608C16.6634 19 17.1454 18.8003 17.5008 18.4449C17.8562 18.0895 18.0559 17.6075 18.0559 17.1049V10.472M15.5685 1.58873C15.9455 1.21177 16.4568 1 16.9899 1C17.523 1 18.0342 1.21177 18.4112 1.58873C18.7882 1.96569 18.9999 2.47696 18.9999 3.01006C18.9999 3.54316 18.7882 4.05443 18.4112 4.43139L9.87092 12.9726C9.64592 13.1974 9.36796 13.362 9.06266 13.4511L6.34034 14.2471C6.25881 14.2709 6.17238 14.2723 6.0901 14.2512C6.00783 14.2301 5.93273 14.1873 5.87267 14.1273C5.81262 14.0672 5.76981 13.9921 5.74873 13.9098C5.72765 13.8276 5.72908 13.7411 5.75286 13.6596L6.5488 10.9373C6.63837 10.6322 6.80325 10.3546 7.02826 10.13L15.5685 1.58873Z"
    stroke="#58575A"
    stroke-width="2"
    stroke-linecap="round"
    stroke-linejoin="round"
  />
</svg>
